# xmcd CD database file
#
# Track frame offsets:
#	150
#	11930
#	23040
#	36290
#	47995
#	58460
#	71495
#	84160
#	97445
#	111115
#	126055
#	140740
#
# Disc length: 2044 seconds
#
# Revision: 0
# Processed by: cddbd v1.4PL0 Copyright (c) Steve Scherf et al.
# Submitted via: Feurio! 1.65.4ß - http://www.feurio.com
#
DISCID=b207fa0c
DTITLE=Heino - Singlehits 1968-1970
DYEAR=1900
DGENRE=Volskmusik
TTITLE0=Zu der Ponderosa reiten wir
TTITLE1=Zwei weiße Möwen
TTITLE2=Treue Bergvagabunden
TTITLE3=Schwer mit den Schätzen des Orient's geladen
TTITLE4=Wenn die Kraniche zieh'n...
TTITLE5=In Junkers Kneipe
TTITLE6=Kramba, Karacho, ein Whisky
TTITLE7=Heute geht die Sehnsucht zu Dir auf die Reise
TTITLE8=Hey Capello
TTITLE9=Ay, Ay, Ay, Paloma
TTITLE10=In einer Bar in Mexico
TTITLE11=Fernweh
EXTD=
EXTT0=
EXTT1=
EXTT2=
EXTT3=
EXTT4=
EXTT5=
EXTT6=
EXTT7=
EXTT8=
EXTT9=
EXTT10=
EXTT11=
PLAYORDER=
